<svg xmlns="http://www.w3.org/2000/svg" viewBox="0 0 512 512">
  <defs>
    <linearGradient id="appIconBg" x1="88" y1="84" x2="420" y2="432" gradientUnits="userSpaceOnUse">
      <stop offset="0%" stop-color="#f4f8ee" />
      <stop offset="100%" stop-color="#dcebd2" />
    </linearGradient>
    <linearGradient id="bowlFill" x1="174" y1="220" x2="338" y2="374" gradientUnits="userSpaceOnUse">
      <stop offset="0%" stop-color="#fffdf8" />
      <stop offset="100%" stop-color="#f6f0df" />
    </linearGradient>
    <linearGradient id="accentFill" x1="214" y1="154" x2="314" y2="242" gradientUnits="userSpaceOnUse">
      <stop offset="0%" stop-color="#9dc88b" />
      <stop offset="100%" stop-color="#6ea97b" />
    </linearGradient>
  </defs>

  <rect width="512" height="512" rx="136" fill="url(#appIconBg)" />

  <circle cx="176" cy="136" r="88" fill="#ffffff" opacity="0.38" />
  <circle cx="392" cy="376" r="92" fill="#f7f1df" opacity="0.48" />

  <path
    d="M160 250c0-18.78 15.22-34 34-34h124c18.78 0 34 15.22 34 34v18H160z"
    fill="#8fb98a"
    opacity="0.98"
  />
  <path
    d="M128 270c0-15.46 12.54-28 28-28h200c15.46 0 28 12.54 28 28v10c0 58.97-47.81 106.78-106.78 106.78h-42.44C175.81 386.78 128 338.97 128 280z"
    fill="url(#bowlFill)"
    stroke="#7ea780"
    stroke-linejoin="round"
    stroke-width="16"
  />
  <path
    d="M175 321c21 15 49 23 81 23s60-8 81-23"
    fill="none"
    stroke="#d8ceb7"
    stroke-linecap="round"
    stroke-width="14"
  />

  <path
    d="M338 146c14 0 25 11 25 25 0 30-38 58-60 76-22-18-60-46-60-76 0-14 11-25 25-25 14 0 25 8 35 20 10-12 21-20 35-20z"
    fill="url(#accentFill)"
  />
  <path
    d="M256 114c21 6 36 21 47 44"
    fill="none"
    stroke="#dff0d6"
    stroke-linecap="round"
    stroke-width="12"
  />

  <g transform="rotate(26 366 197)">
    <rect x="352" y="188" width="22" height="142" rx="11" fill="#7ea780" />
    <ellipse cx="363" cy="178" rx="34" ry="46" fill="#8fb98a" />
    <ellipse cx="363" cy="178" rx="18" ry="24" fill="#eef6e7" />
  </g>
</svg>
