<svg width="1440" height="2200" viewBox="0 0 1440 2200" fill="none" xmlns="http://www.w3.org/2000/svg">
  <rect width="1440" height="2200" fill="#FFF8F3"/>
  <g opacity="0.85">
    <circle cx="190" cy="250" r="210" fill="#FFD8CB"/>
    <circle cx="1230" cy="330" r="240" fill="#FFE8BE"/>
    <circle cx="1160" cy="1730" r="270" fill="#FFD6E1"/>
    <circle cx="310" cy="1820" r="240" fill="#FFE8BE"/>
    <circle cx="760" cy="1060" r="220" fill="#FFDACA"/>
  </g>
  <g opacity="0.58">
    <path d="M274 476C274 426.294 314.294 386 364 386H598C647.706 386 688 426.294 688 476C688 525.706 647.706 566 598 566H364C314.294 566 274 525.706 274 476Z" fill="white"/>
    <path d="M782 640C782 590.294 822.294 550 872 550H1134C1183.71 550 1224 590.294 1224 640C1224 689.706 1183.71 730 1134 730H872C822.294 730 782 689.706 782 640Z" fill="white"/>
    <path d="M178 1468C178 1418.29 218.294 1378 268 1378H532C581.706 1378 622 1418.29 622 1468C622 1517.71 581.706 1558 532 1558H268C218.294 1558 178 1517.71 178 1468Z" fill="white"/>
  </g>
  <g opacity="0.7">
    <path d="M1027 266L1040.56 296.44L1071 310L1040.56 323.56L1027 354L1013.44 323.56L983 310L1013.44 296.44L1027 266Z" fill="#FFCFAF"/>
    <path d="M266 1146L276.91 1170.09L301 1181L276.91 1191.91L266 1216L255.09 1191.91L231 1181L255.09 1170.09L266 1146Z" fill="#F8D47B"/>
    <path d="M1148 1468L1158.91 1492.09L1183 1503L1158.91 1513.91L1148 1538L1137.09 1513.91L1113 1503L1137.09 1492.09L1148 1468Z" fill="#FFCFD9"/>
  </g>
  <g opacity="0.42">
    <circle cx="614" cy="182" r="18" fill="#FFF0D6"/>
    <circle cx="906" cy="1180" r="22" fill="#FFF0D6"/>
    <circle cx="1186" cy="986" r="16" fill="#FFF0D6"/>
    <circle cx="412" cy="944" r="20" fill="#FFF0D6"/>
    <circle cx="766" cy="1952" r="18" fill="#FFF0D6"/>
  </g>
</svg>
