<svg width="960" height="1200" viewBox="0 0 960 1200" fill="none" xmlns="http://www.w3.org/2000/svg">
  <defs>
    <linearGradient id="bgSoft" x1="156" y1="84" x2="804" y2="1124" gradientUnits="userSpaceOnUse">
      <stop offset="0%" stop-color="#FFF9F1" />
      <stop offset="100%" stop-color="#F5EFE2" />
    </linearGradient>
    <linearGradient id="wallGlow" x1="188" y1="132" x2="792" y2="1048" gradientUnits="userSpaceOnUse">
      <stop offset="0%" stop-color="#FFFFFF" stop-opacity="0.96" />
      <stop offset="100%" stop-color="#FAF4E8" stop-opacity="0.9" />
    </linearGradient>
    <linearGradient id="counterFill" x1="144" y1="610" x2="820" y2="910" gradientUnits="userSpaceOnUse">
      <stop offset="0%" stop-color="#F2E5D5" />
      <stop offset="100%" stop-color="#E9D9C6" />
    </linearGradient>
    <linearGradient id="sage" x1="273" y1="432" x2="509" y2="861" gradientUnits="userSpaceOnUse">
      <stop offset="0%" stop-color="#BFD3B2" />
      <stop offset="100%" stop-color="#93B189" />
    </linearGradient>
    <linearGradient id="leafAccent" x1="533" y1="657" x2="600" y2="747" gradientUnits="userSpaceOnUse">
      <stop offset="0%" stop-color="#B2D39D" />
      <stop offset="100%" stop-color="#7FA776" />
    </linearGradient>
    <filter id="softShadow" x="104" y="74" width="752" height="1046" filterUnits="userSpaceOnUse" color-interpolation-filters="sRGB">
      <feFlood flood-opacity="0" result="BackgroundImageFix"/>
      <feColorMatrix in="SourceAlpha" type="matrix" values="0 0 0 0 0 0 0 0 0 0 0 0 0 0 0 0 0 0 127 0" result="hardAlpha"/>
      <feOffset dy="28"/>
      <feGaussianBlur stdDeviation="28"/>
      <feColorMatrix type="matrix" values="0 0 0 0 0.67 0 0 0 0 0.56 0 0 0 0 0.43 0 0 0 0.16 0"/>
      <feBlend mode="normal" in2="BackgroundImageFix" result="effect1_dropShadow_1_1"/>
      <feBlend mode="normal" in="SourceGraphic" in2="effect1_dropShadow_1_1" result="shape"/>
    </filter>
  </defs>

  <rect width="960" height="1200" fill="#FFF8F0"/>
  <circle cx="180" cy="194" r="120" fill="#F3E9D8"/>
  <circle cx="806" cy="250" r="132" fill="#E7EFDF"/>
  <circle cx="772" cy="1026" r="164" fill="#F3E5CF"/>
  <circle cx="170" cy="1018" r="138" fill="#E6F0E0"/>

  <g filter="url(#softShadow)">
    <rect x="160" y="102" width="640" height="916" rx="56" fill="url(#bgSoft)"/>
    <rect x="188" y="132" width="584" height="860" rx="44" fill="url(#wallGlow)"/>

    <rect x="258" y="184" width="146" height="110" rx="24" fill="#F1E6D4"/>
    <rect x="556" y="184" width="146" height="110" rx="24" fill="#E3EEDB"/>
    <rect x="444" y="204" width="72" height="164" rx="36" fill="#FBF5EA"/>
    <rect x="468" y="224" width="24" height="122" rx="12" fill="#E9DCC7"/>
    <rect x="322" y="632" width="328" height="36" rx="18" fill="#EADCC8"/>

    <path d="M198 610C198 592.327 212.327 578 230 578H730C747.673 578 762 592.327 762 610V682H198V610Z" fill="url(#counterFill)"/>
    <rect x="220" y="682" width="520" height="250" rx="36" fill="#F2E6D8"/>
    <rect x="220" y="716" width="164" height="180" rx="28" fill="#F7EEE4"/>
    <rect x="398" y="716" width="164" height="180" rx="28" fill="#F7EEE4"/>
    <rect x="576" y="716" width="164" height="180" rx="28" fill="#F7EEE4"/>
    <rect x="294" y="274" width="90" height="18" rx="9" fill="#D9C8B0"/>
    <rect x="588" y="274" width="90" height="18" rx="9" fill="#C4D8BE"/>

    <ellipse cx="476" cy="924" rx="204" ry="24" fill="#E6D7C5"/>

    <g>
      <path d="M348 502C348 446.772 392.772 402 448 402V402C503.228 402 548 446.772 548 502V604H348V502Z" fill="url(#sage)"/>
      <path d="M382 430C382 385.817 417.817 350 462 350V350C506.183 350 542 385.817 542 430V498H382V430Z" fill="#E9D9CC"/>
      <path d="M404 342C404 299.474 438.474 265 481 265V265C523.526 265 558 299.474 558 342V388H404V342Z" fill="#43392F"/>
      <circle cx="486" cy="320" r="62" fill="#F6D9C4"/>
      <path d="M430 298C446 260 481 244 520 250C546 254 570 270 582 294C562 275 530 280 508 290C478 303 455 316 430 298Z" fill="#43392F"/>
      <rect x="456" y="376" width="50" height="76" rx="25" fill="#F3D2BD"/>
      <path d="M414 486C396 520 394 564 418 604H360C360 551 378 511 414 486Z" fill="#F3D2BD"/>
      <path d="M546 490C592 524 604 566 596 604H536C552 566 554 526 546 490Z" fill="#F3D2BD"/>
      <rect x="430" y="446" width="112" height="200" rx="42" fill="#F8F2E8"/>
      <path d="M470 446H504V646H470C457.85 646 448 636.15 448 624V468C448 455.85 457.85 446 470 446Z" fill="#F1E5D7"/>
    </g>

    <g>
      <rect x="602" y="522" width="128" height="208" rx="34" fill="#D7C7B4"/>
      <rect x="618" y="550" width="96" height="176" rx="28" fill="#F3E8D8"/>
      <rect x="622" y="666" width="88" height="120" rx="22" fill="#C7D8BF"/>
      <path d="M598 756C598 734.461 615.461 717 637 717H693C714.539 717 732 734.461 732 756V928H598V756Z" fill="#D6C5B4"/>
      <circle cx="666" cy="528" r="50" fill="#F6D9C4"/>
      <path d="M626 506C632 470 660 446 698 452C717 455 734 467 744 486C720 476 698 478 678 486C660 493 645 503 626 506Z" fill="#6D5B48"/>
      <path d="M628 606C628 573.967 653.967 548 686 548V548C718.033 548 744 573.967 744 606V676H628V606Z" fill="#EDE1D2"/>
      <path d="M638 606C650 592 670 584 686 584C702 584 718 590 732 604V676H638V606Z" fill="#F5C9A8"/>
      <circle cx="650" cy="528" r="6" fill="#6D5B48"/>
      <circle cx="684" cy="528" r="6" fill="#6D5B48"/>
      <path d="M652 547C660 555 670 560 682 560C694 560 704 555 712 547" stroke="#D48C73" stroke-width="10" stroke-linecap="round"/>
    </g>

    <g>
      <ellipse cx="538" cy="666" rx="76" ry="28" fill="#E1D0B8"/>
      <path d="M468 654C468 620.863 494.863 594 528 594H548C581.137 594 608 620.863 608 654V660H468V654Z" fill="#FFF8F0"/>
      <path d="M482 666H594C594 718.467 551.467 761 499 761H477C424.533 761 382 718.467 382 666H482Z" fill="#FFFDF8"/>
      <path d="M404 680C420 714 452 736 490 736H508C546 736 578 714 594 680" stroke="#D8C8AF" stroke-width="12" stroke-linecap="round"/>
      <path d="M548 620C570 596 604 604 614 636C592 644 568 638 548 620Z" fill="url(#leafAccent)"/>
      <path d="M526 632C510 602 526 572 560 572C566 598 558 618 526 632Z" fill="#A6C693"/>
      <path d="M526 632C545 628 558 616 566 598" stroke="#EAF5E2" stroke-width="8" stroke-linecap="round"/>
      <path d="M640 592C664 566 698 566 716 586" stroke="#8EA985" stroke-width="16" stroke-linecap="round"/>
      <path d="M664 558L640 674" stroke="#8EA985" stroke-width="18" stroke-linecap="round"/>
      <circle cx="666" cy="550" r="20" fill="#F7F1E5"/>
    </g>

    <g opacity="0.7">
      <circle cx="292" cy="358" r="16" fill="#F2DEC6"/>
      <circle cx="668" cy="370" r="14" fill="#DCE7D3"/>
      <circle cx="612" cy="466" r="18" fill="#F3E6D3"/>
      <circle cx="312" cy="854" r="14" fill="#E0EBD7"/>
    </g>
  </g>
</svg>
